<?xml version="1.0" encoding="UTF-8"?>
<svg version="1.1" xmlns="http://www.w3.org/2000/svg" viewBox="0 0 1254 1254" width="1254" height="1254">
<path d="M0 0 C0.92035829 -0.00367669 1.84071658 -0.00735338 2.78896451 -0.01114148 C5.89196903 -0.02220879 8.9949401 -0.02602731 12.09796143 -0.02983093 C14.31509509 -0.03609327 16.53222769 -0.04273986 18.74935913 -0.04974365 C24.78663745 -0.06717443 30.82390784 -0.077711 36.8612051 -0.08594918 C40.63056769 -0.09109475 44.3999278 -0.09717067 48.16928864 -0.10346031 C58.60407044 -0.12033284 69.0388511 -0.13496783 79.47364426 -0.14220905 C82.18207551 -0.14411897 84.89050676 -0.1460393 87.59893799 -0.147995 C88.27211206 -0.14847874 88.94528613 -0.14896248 89.63885942 -0.14946087 C100.54376154 -0.15776111 111.44855397 -0.18309736 122.35340819 -0.21557567 C133.54739899 -0.24864348 144.74135009 -0.26632477 155.93539357 -0.26985329 C162.22117 -0.27220738 168.5067731 -0.28121448 174.79250336 -0.30631447 C180.70550241 -0.32954405 186.61821338 -0.33384891 192.53124619 -0.32355309 C194.70246461 -0.32305638 196.87369698 -0.3294164 199.04487228 -0.34310913 C202.00763871 -0.36074973 204.96936251 -0.35376017 207.93212891 -0.34057617 C209.22289845 -0.35703004 209.22289845 -0.35703004 210.53974414 -0.37381631 C215.8818939 -0.31636933 219.04212793 0.50287887 223.22003174 4.14717102 C226.03229117 7.72714782 225.49430479 12.09919185 225.46485901 16.45306396 C225.46712358 17.29824917 225.46938815 18.14343438 225.47172135 19.01423126 C225.47702521 21.85085696 225.46817981 24.6872651 225.45953369 27.52388 C225.46064636 29.55574107 225.46270383 31.58760181 225.46563721 33.61946106 C225.47036301 37.99726587 225.46923558 42.37501708 225.46386147 46.75282097 C225.45626433 53.67297115 225.46689265 60.59301757 225.48106384 67.51315308 C225.51884065 87.19202573 225.53698246 106.87085164 225.52545166 126.54975891 C225.51924116 137.41643808 225.53078553 148.28295014 225.56189698 159.14958817 C225.58058556 166.03101792 225.57720006 172.91197564 225.55772936 179.79339778 C225.55085901 184.0722696 225.56478236 188.35088409 225.58467865 192.62970734 C225.58973588 194.61589071 225.58621548 196.60211697 225.57354546 198.58826637 C225.55748904 201.29757964 225.5720339 204.00506421 225.59425354 206.71429443 C225.57619729 207.89649485 225.57619729 207.89649485 225.55777627 209.1025781 C225.6247214 213.09864548 226.06438197 214.94775219 228.55282879 218.13595581 C232.00331084 220.73780581 234.02165472 220.7616446 238.31768799 220.74311829 C239.36012161 220.74920609 239.36012161 220.74920609 240.4236145 220.75541687 C241.92573058 220.76091856 243.42792351 220.75496916 244.92996216 220.73875618 C247.30983324 220.71328507 249.68797671 220.71814878 252.06793213 220.73065186 C257.118823 220.75137512 262.16917633 220.7317282 267.22003174 220.70967102 C273.07462201 220.68855036 278.9286551 220.68401927 284.78323364 220.71017265 C287.12397451 220.71352915 289.46364605 220.69232893 291.80426025 220.66976929 C293.24363435 220.67228113 294.68300713 220.67584174 296.12237549 220.68061829 C297.37526367 220.67441971 298.62815186 220.66822113 299.91900635 220.66183472 C303.83352103 221.23736985 305.47114964 222.34711756 308.22003174 225.14717102 C309.13267199 227.88509178 309.34667873 229.48095838 309.3514595 232.297369 C309.35530065 233.14672378 309.35914179 233.99607856 309.36309934 234.87117136 C309.36223285 235.80452267 309.36136637 236.73787398 309.36047363 237.69950867 C309.36493032 239.18651667 309.36493032 239.18651667 309.36947703 240.70356524 C309.37818069 244.04073264 309.37967368 247.37786425 309.38116455 250.71504211 C309.38579149 253.10143104 309.39081598 255.48781923 309.39620972 257.87420654 C309.40934645 264.36795786 309.41581754 270.86170231 309.42022038 277.35546446 C309.42298257 281.40942357 309.42721985 285.4633803 309.43172455 289.5173378 C309.44391659 300.73965747 309.4542164 311.96197523 309.45759964 323.18430138 C309.45781921 323.90256774 309.45803877 324.6208341 309.45826499 325.36086611 C309.45848327 326.08085687 309.45870155 326.80084764 309.45892644 327.5426563 C309.45936991 329.00164819 309.45981647 330.46064007 309.46026611 331.91963196 C309.46048754 332.64334329 309.46070897 333.36705462 309.46093711 334.1126966 C309.46488618 345.842669 309.4823438 357.57257931 309.50562564 369.30252771 C309.52933099 381.34293144 309.5418011 393.383304 309.54296756 405.42373145 C309.54388472 412.18505778 309.54964741 418.9463032 309.56778717 425.70760727 C309.58421946 432.06543892 309.58644691 438.42311672 309.57764816 444.78096199 C309.57687522 447.1170766 309.58125409 449.45319932 309.59110641 451.78929329 C309.60374957 454.9733361 309.59799052 458.15682768 309.58752441 461.34086609 C309.59960902 462.73420089 309.59960902 462.73420089 309.61193776 464.15568388 C309.57475996 468.97689735 309.37167932 472.23736731 306.22003174 476.14717102 C302.81037046 478.66895142 299.33984913 478.41634805 295.2041626 478.45014954 C294.50614029 478.45858887 293.80811798 478.4670282 293.08894348 478.47572327 C290.78758037 478.50145968 288.48634544 478.51363145 286.18487549 478.52607727 C284.58351124 478.54225564 282.98215683 478.559436 281.3808136 478.57757568 C277.16851345 478.6232342 272.95620009 478.65805394 268.74377441 478.68977356 C261.99774637 478.74167466 255.25186309 478.80680363 248.50601387 478.87798882 C246.14897568 478.90081962 243.79195585 478.9170914 241.43486023 478.93270874 C239.99207355 478.94611566 238.54928878 478.95973048 237.10650635 478.97358704 C235.84616074 478.98309891 234.58581512 478.99261078 233.28727722 479.00241089 C230.17908537 479.0101796 230.17908537 479.0101796 227.22003174 480.14717102 C225.97036236 483.89617917 226.08675677 487.37713254 226.10218811 491.28138733 C226.10148353 492.12022343 226.10077895 492.95905953 226.10005301 493.82331491 C226.09874075 496.64450346 226.1044259 499.46563658 226.10992432 502.28681946 C226.11016638 504.30543518 226.10988946 506.32405103 226.10913086 508.34266663 C226.10802337 512.69536975 226.10946065 517.04806233 226.11249733 521.40076447 C226.11612411 528.28356124 226.10700271 535.16630285 226.0947113 542.04908752 C226.09268937 543.21005502 226.09066744 544.37102252 226.08858424 545.56717086 C226.08441548 547.94145972 226.08021273 550.31574851 226.07597673 552.69003725 C226.04781435 568.71712202 226.0277071 584.74408759 226.04498291 600.77119446 C226.056536 611.57748472 226.04696498 622.38352788 226.01292533 633.1897738 C225.99575815 638.9094626 225.98949972 644.62870545 226.00904274 650.3483963 C226.02726266 655.72974188 226.01767041 661.11031911 225.98678589 666.49160004 C225.98041667 668.4656516 225.98428136 670.43976698 225.99918175 672.41377258 C226.01803395 675.11177654 225.99994403 677.80714283 225.97279358 680.50502014 C225.9870618 681.28411924 226.00133002 682.06321834 226.01603061 682.8659265 C225.91324819 687.92884268 224.67186581 691.16779306 221.10699397 694.83385241 C217.56262302 697.30072125 213.99588611 697.10755529 209.80046082 697.02932739 C208.38923717 697.04464895 208.38923717 697.04464895 206.94950396 697.06028003 C203.80050963 697.08583749 200.65391828 697.06141669 197.50494385 697.0370636 C195.24617836 697.04491254 192.98742158 697.05575455 190.72868347 697.06936646 C184.59637901 697.09701656 178.46491793 697.08051451 172.33263469 697.05451798 C165.91809773 697.03308348 159.50362003 697.04657414 153.08906555 697.05480957 C141.62763829 697.06349364 130.16667191 697.03761928 118.70534004 696.99761083 C108.31483225 696.96224225 97.92477639 696.9606602 87.53424072 696.98432922 C74.17692564 697.01472547 60.82000196 697.01456843 47.46264839 696.98900414 C42.36180805 696.97989621 37.2611842 696.9828622 32.16035271 696.99550819 C26.15597994 697.00893148 20.15239597 696.99286167 14.14814186 696.95387077 C11.94266649 696.94432716 9.73711993 696.94502256 7.53165436 696.95661163 C4.5244193 696.97073311 1.51966256 696.9480269 -1.48738098 696.915802 C-2.80177276 696.93485532 -2.80177276 696.93485532 -4.1427179 696.95429355 C-5.35387195 696.92989877 -5.35387195 696.92989877 -6.58949375 696.90501118 C-7.28302812 696.90349499 -7.97656249 696.9019788 -8.69111305 696.90041667 C-12.21274689 695.63050798 -14.14643706 693.39905779 -15.77996826 690.14717102 C-16.50221628 686.34856515 -16.45104903 682.61633023 -16.40917397 678.7589798 C-16.41644117 677.60069508 -16.42370837 676.44241037 -16.4311958 675.24902612 C-16.44632005 672.0281253 -16.43900774 668.80816808 -16.42230603 665.58730356 C-16.40963601 662.0855833 -16.42591662 658.58397883 -16.4385227 655.08227491 C-16.45659784 648.94320719 -16.4560233 642.80435921 -16.4432869 636.6652813 C-16.42439907 627.53641038 -16.43403024 618.40772536 -16.44932843 609.27885576 C-16.47568077 592.97617252 -16.47336582 576.67358715 -16.45893387 560.37089457 C-16.44636609 546.10432855 -16.4430679 531.83779844 -16.44904709 517.57122803 C-16.44942901 516.62563636 -16.44981094 515.6800447 -16.45020444 514.70579874 C-16.45176108 510.86752904 -16.45335307 507.02925936 -16.45500326 503.1909897 C-16.47030522 467.17019964 -16.45641993 431.14947198 -16.42951877 395.12869155 C-16.40578996 363.11219424 -16.40791307 331.09579636 -16.43182373 299.07929993 C-16.45858517 263.12524721 -16.4692201 227.17124965 -16.45376241 191.21718836 C-16.45215878 187.38583026 -16.45059458 183.55447214 -16.44904709 179.72311401 C-16.4486517 178.77970578 -16.44825632 177.83629754 -16.44784895 176.86430117 C-16.44215673 162.60517737 -16.44882198 148.34609339 -16.46144485 134.0869751 C-16.47572301 117.87698513 -16.47220586 101.6671085 -16.44504113 85.4571327 C-16.43033239 76.38006636 -16.42944034 67.30324534 -16.44827201 58.22618524 C-16.45945625 52.16820261 -16.45255669 46.11041728 -16.43074816 40.05246397 C-16.41881764 36.59732249 -16.41486161 33.1426695 -16.43277808 29.68754286 C-16.44787422 25.96967306 -16.43249983 22.25315991 -16.40917397 18.53536224 C-16.4208798 17.45707147 -16.43258563 16.3787807 -16.44464618 15.26781446 C-16.34268779 7.19615511 -16.34268779 7.19615511 -13.36564291 3.49790907 C-9.05092293 -0.42477179 -5.59565631 -0.00118655 0 0 Z " fill="#f0f0f0" transform="translate(381.77996826171875,234.8528289794922)"/>
<path d="M0 0 C1.42831799 -0.01298157 1.42831799 -0.01298157 2.88549089 -0.02622539 C6.07882805 -0.04783065 9.27042625 -0.02651255 12.46374512 -0.00532532 C14.75191583 -0.01181776 17.04008049 -0.02087822 19.32823181 -0.03231812 C25.54522613 -0.05542532 31.7616076 -0.04066419 37.97858238 -0.01784873 C44.47987129 0.00104392 50.98111844 -0.01008738 57.48242188 -0.01675415 C69.1006211 -0.0235043 80.71854295 -0.00072677 92.33668357 0.03418525 C102.86985751 0.06507818 113.4027148 0.06744926 123.93591309 0.04838562 C137.47359999 0.02391247 151.01099102 0.02485421 164.5486908 0.04715538 C169.7192832 0.05514915 174.88972999 0.05314048 180.06031799 0.04313087 C186.14748356 0.03259327 192.23410489 0.04666851 198.32118416 0.07987404 C200.55730268 0.08809414 202.79347096 0.08778224 205.02958488 0.07839584 C208.07819732 0.06700282 211.12510752 0.08629524 214.17358398 0.11352539 C215.06220013 0.1030539 215.95081628 0.09258241 216.86636019 0.08179361 C217.6848631 0.09544904 218.50336602 0.10910448 219.34667206 0.12317371 C220.40145665 0.12520447 220.40145665 0.12520447 221.47755003 0.12727624 C225.07721255 1.19885337 226.39498357 2.70517382 228.58679199 5.75517273 C229.32803864 9.50729103 229.25551906 13.20611428 229.21320438 17.02031612 C229.22017199 18.17744699 229.2271396 19.33457786 229.23431835 20.5267733 C229.24862773 23.74910377 229.24044861 26.97048774 229.2229284 30.192774 C229.20937121 33.6942975 229.2247488 37.19571164 229.23647922 40.69722515 C229.25302234 46.83750963 229.25090242 52.97756997 229.23665237 59.11785698 C229.21552019 68.2485423 229.22290706 77.37904821 229.23602759 86.50974053 C229.25851102 102.81546886 229.25247319 119.1210937 229.23459149 135.42682217 C229.219039 149.69663702 229.21316795 163.96641554 229.2169323 178.23623848 C229.2171691 179.18189888 229.2174059 180.12755929 229.21764987 181.10187607 C229.21862476 184.94039708 229.21964557 188.77891808 229.22073498 192.61743906 C229.23082383 228.64467564 229.21253717 264.67184841 229.18101462 300.69906998 C229.15315508 332.72210664 229.14818876 364.74506738 229.16320801 396.76811218 C229.1670303 404.96708135 229.17082505 413.16605051 229.1743784 421.3650198 C229.17503512 422.87900224 229.17503512 422.87900224 229.17570511 424.42357018 C229.18693985 451.16387761 229.17959968 477.90417944 229.16649765 504.64448506 C229.16510905 507.52113075 229.16372834 510.39777645 229.16235923 513.27442216 C229.16144984 515.18279744 229.16052717 517.09117272 229.15959112 518.999548 C229.15278918 533.26130736 229.1554609 547.52304481 229.16253853 561.78480339 C229.17049682 577.99846597 229.16396867 594.21205208 229.13836349 610.42569786 C229.12441698 619.50494745 229.12148077 628.58404316 229.13429819 637.66329531 C229.14174177 643.72276719 229.13471009 649.7821091 229.11574008 655.84155561 C229.10532423 659.29751572 229.10127977 662.7531654 229.11471862 666.20912211 C229.12583019 669.9277869 229.1125714 673.64557751 229.09294987 677.36418819 C229.10202868 678.44276481 229.1111075 679.52134143 229.12046143 680.63260219 C229.05857261 686.60573345 228.69825598 690.27239832 224.58679199 694.75517273 C220.564275 696.09601173 216.68521641 695.91021946 212.49002075 695.915802 C211.54768471 695.92088982 210.60534867 695.92597764 209.63445699 695.93121964 C206.46313395 695.94697029 203.29183374 695.95547599 200.1204834 695.96391296 C197.85231887 695.97344908 195.58415581 695.98334013 193.31599426 695.99356079 C185.85679861 696.02496561 178.39759172 696.04521071 170.93835449 696.06376648 C169.67042667 696.0670638 168.40249885 696.07036112 167.09614897 696.07375836 C155.14526866 696.1045331 143.19438687 696.13140942 131.24347878 696.14817715 C128.47608049 696.15212665 125.70868229 696.15612965 122.94128418 696.16020203 C122.25346022 696.16121039 121.56563627 696.16221875 120.85696916 696.16325767 C109.70890287 696.18027308 98.56105822 696.22139359 87.4131002 696.27222501 C75.96933086 696.32397652 64.52573162 696.35263321 53.0818361 696.36037403 C46.65572345 696.36533941 40.23000503 696.3805056 33.80400467 696.42011833 C27.76122089 696.45687861 21.71905828 696.46542895 15.6761837 696.4521122 C13.45615217 696.45216632 11.23609383 696.46253186 9.01616478 696.48386383 C5.98919591 696.51140056 2.96451537 696.50210113 -0.06246948 696.48342896 C-1.38576722 696.50862135 -1.38576722 696.50862135 -2.73579824 696.53432268 C-7.2576913 696.46442772 -8.89705341 696.19418188 -12.45794678 693.16550636 C-14.7116745 689.23459251 -15.04143981 686.97011446 -15.04812622 682.46157837 C-15.05982615 681.39337312 -15.05982615 681.39337312 -15.07176244 680.30358797 C-15.09163025 677.92876146 -15.07594026 675.55554685 -15.06018066 673.18070984 C-15.06695911 671.47366402 -15.07586352 669.76662552 -15.08673096 668.05960083 C-15.10950232 663.43148604 -15.10069744 658.80392926 -15.08483553 654.17580485 C-15.07216737 649.33079076 -15.083919 644.4858241 -15.09176636 639.64080811 C-15.10085938 631.50590952 -15.08888321 623.37123801 -15.06506348 615.2363739 C-15.03784372 605.83173881 -15.0466739 596.42764555 -15.0741955 587.02302355 C-15.09688456 578.94641098 -15.10008793 570.86996153 -15.08700216 562.79332739 C-15.0792077 557.9703019 -15.07816609 553.14753113 -15.0946846 548.32452202 C-15.10912748 543.7910239 -15.09911126 539.25822463 -15.07021332 534.72480202 C-15.06360188 533.06113724 -15.06550123 531.39741365 -15.07652664 529.73377228 C-15.09019249 527.46231545 -15.07305828 525.19309755 -15.04812622 522.92178345 C-15.04624109 521.65104949 -15.04435596 520.38031553 -15.04241371 519.07107449 C-14.2428045 514.8571496 -12.74892199 513.3705453 -9.41320801 510.75517273 C-6.11218262 510.13612366 -6.11218262 510.13612366 -2.31555176 510.14335632 C-1.27311813 510.13485909 -1.27311813 510.13485909 -0.20962524 510.12619019 C2.07723677 510.11273509 4.3625003 510.13359795 6.64929199 510.15361023 C8.24443647 510.14810777 9.83957385 510.13998109 11.43469238 510.12934875 C15.62833822 510.10648233 19.82146242 510.11067548 24.01513672 510.12315369 C30.7268818 510.14147264 37.43832157 510.13147575 44.1499939 510.09729385 C46.49057267 510.09119805 48.83049345 510.10443853 51.17102051 510.11927795 C52.61039397 510.11632927 54.04976621 510.11267418 55.48913574 510.10820007 C57.36846802 510.11416702 57.36846802 510.11416702 59.2857666 510.12025452 C62.90801378 509.71964673 64.74335952 509.0075229 67.58679199 506.75517273 C69.56777817 503.61077804 69.83783001 501.16423563 69.84126759 497.4824152 C69.85001588 495.87099049 69.85001588 495.87099049 69.8589409 494.22701174 C69.85327191 492.457823 69.85327191 492.457823 69.8474884 490.65289307 C69.85131395 489.39935262 69.8551395 488.14581218 69.85908097 486.85428566 C69.86938692 483.3726616 69.86717258 479.89114021 69.86290038 476.40950763 C69.86043786 472.65551629 69.86944139 468.90154998 69.87693787 465.14756775 C69.88970001 457.7923659 69.89147668 450.43720053 69.8891376 443.08198947 C69.88735602 437.1048156 69.88910065 431.12765282 69.89336205 425.15048027 C69.89395723 424.30042994 69.89455242 423.45037962 69.89516565 422.57457019 C69.89637737 420.84780598 69.89759151 419.12104177 69.89880802 417.39427757 C69.90968935 401.19356961 69.90751824 384.99288245 69.90142318 368.79217332 C69.89625317 353.96480079 69.90751061 339.13749395 69.9265214 324.31013442 C69.9458838 309.09210041 69.95415863 293.87409751 69.95039815 278.6560511 C69.94848371 270.10958218 69.95099723 261.56316917 69.96511269 253.01671028 C69.9770071 245.74127745 69.97845322 238.46593495 69.96632252 231.19050092 C69.96042021 227.47748139 69.9593715 223.76462724 69.97132492 220.05161858 C69.98412446 216.02909235 69.97375154 212.00696231 69.96101379 207.98443604 C69.97207522 206.21859337 69.97207522 206.21859337 69.98336011 204.41707712 C69.97615357 203.34018624 69.96894703 202.26329535 69.9615221 201.1537714 C69.96157712 200.22524516 69.96163213 199.29671892 69.96168882 198.34005553 C69.50351584 195.18099049 68.45659133 193.3255608 66.58679199 190.75517273 C62.88123377 188.28480058 61.04695518 188.5149832 56.62438965 188.53153992 C55.91997238 188.53113205 55.21555511 188.53072418 54.48979187 188.53030396 C52.96089829 188.53010648 51.43199964 188.5341437 49.90312576 188.54190826 C47.48178303 188.55212823 45.0609555 188.54675449 42.63961792 188.53648376 C35.75570634 188.50849903 28.87208431 188.4960224 21.98815918 188.52519226 C17.77631827 188.54192182 13.56539831 188.52960634 9.35364914 188.49874115 C7.75011966 188.49263758 6.14650899 188.49750509 4.54304886 188.51361847 C2.29699974 188.53524453 0.05395017 188.51991544 -2.1920166 188.49638367 C-3.46870209 188.49797485 -4.74538757 188.49956604 -6.0607605 188.50120544 C-9.78925735 187.67148906 -11.05483316 186.48002641 -13.37567079 183.51486897 C-15.13091587 180.53791728 -15.04309745 177.83737057 -15.04812622 174.43034363 C-15.05592617 173.71482881 -15.06372613 172.99931399 -15.07176244 172.26211691 C-15.09163156 169.87580749 -15.07593962 167.491102 -15.06018066 165.1047821 C-15.06695911 163.38950676 -15.07586352 161.67423869 -15.08673096 159.95898438 C-15.10950403 155.3080768 -15.10069626 150.65772447 -15.08483553 146.00680733 C-15.07216621 141.1369033 -15.08391951 136.26704643 -15.09176636 131.3971405 C-15.10085991 123.2193601 -15.08888273 115.04180555 -15.06506348 106.86405945 C-15.03785276 97.41286605 -15.04666714 87.96221196 -15.0741955 78.51103163 C-15.09689395 70.39279044 -15.10008305 62.27471151 -15.08700216 54.15644884 C-15.0792117 49.30935865 -15.07815493 44.46252186 -15.0946846 39.615448 C-15.10914081 35.05814589 -15.09908681 30.50153831 -15.07021332 25.94431114 C-15.06360862 24.27300354 -15.06548969 22.60163737 -15.07652664 20.93035316 C-15.09021934 18.64611698 -15.07302555 16.36409724 -15.04812622 14.08000183 C-15.04624109 12.80281532 -15.04435596 11.52562881 -15.04241371 10.20973969 C-13.38035251 1.08442236 -8.0959548 -0.12815583 0 0 Z " fill="#ffffff" transform="translate(661.4132080078125,235.2448272705078)"/>
<path d="M0 0 C0.598125 0.226875 1.19625 0.45375 1.8125 0.6875 C0.30586217 3.70077566 -2.21916411 4.29806618 -5.1875 5.6875 C-5.1875 2.6875 -5.1875 2.6875 -3.9375 0.9375 C-2.1875 -0.3125 -2.1875 -0.3125 0 0 Z " fill="#e0e0e0" transform="translate(654.1875,746.3125)"/>
<path d="M0 0 C0.66 0.33 1.32 0.66 2 1 C0.02 3.97 0.02 3.97 -2 7 C-2.66 6.67 -3.32 6.34 -4 6 C-2.84826645 3.53199953 -1.95216435 1.95216435 0 0 Z " fill="#d0d0d0" transform="translate(371,236)"/>
</svg>
